<svg width="123" height="123" viewBox="0 0 123 123" fill="none" xmlns="http://www.w3.org/2000/svg">
<rect x="0.8125" y="0.484375" width="10" height="10" rx="5" fill="#81818B" fill-opacity="0.2"/>
<rect x="16.8125" y="0.484375" width="10" height="10" rx="5" fill="#81818B" fill-opacity="0.2"/>
<rect x="32.8125" y="0.484375" width="10" height="10" rx="5" fill="#81818B" fill-opacity="0.2"/>
<rect x="48.8125" y="0.484375" width="10" height="10" rx="5" fill="#81818B" fill-opacity="0.2"/>
<rect x="64.8125" y="0.484375" width="10" height="10" rx="5" fill="#81818B" fill-opacity="0.2"/>
<rect x="80.8125" y="0.484375" width="10" height="10" rx="5" fill="#81818B" fill-opacity="0.2"/>
<rect x="96.8125" y="0.484375" width="10" height="10" rx="5" fill="#81818B" fill-opacity="0.2"/>
<rect x="112.812" y="0.484375" width="10" height="10" rx="5" fill="#81818B" fill-opacity="0.2"/>
<rect x="0.8125" y="16.4844" width="10" height="10" rx="5" fill="#81818B" fill-opacity="0.2"/>
<rect x="16.8125" y="16.4844" width="10" height="10" rx="5" fill="#81818B" fill-opacity="0.2"/>
<rect x="32.8125" y="16.4844" width="10" height="10" rx="5" fill="#81818B" fill-opacity="0.2"/>
<rect x="48.8125" y="16.4844" width="10" height="10" rx="5" fill="#81818B" fill-opacity="0.2"/>
<rect x="64.8125" y="16.4844" width="10" height="10" rx="5" fill="#81818B" fill-opacity="0.2"/>
<rect x="80.8125" y="16.4844" width="10" height="10" rx="5" fill="#81818B" fill-opacity="0.2"/>
<rect x="96.8125" y="16.4844" width="10" height="10" rx="5" fill="#81818B" fill-opacity="0.2"/>
<rect x="112.812" y="16.4844" width="10" height="10" rx="5" fill="#81818B" fill-opacity="0.2"/>
<rect x="0.8125" y="32.4844" width="10" height="10" rx="5" fill="#81818B" fill-opacity="0.2"/>
<rect x="16.8125" y="32.4844" width="10" height="10" rx="5" fill="#81818B" fill-opacity="0.2"/>
<rect x="32.8125" y="32.4844" width="10" height="10" rx="5" fill="#81818B" fill-opacity="0.2"/>
<rect x="48.8125" y="32.4844" width="10" height="10" rx="5" fill="#81818B" fill-opacity="0.2"/>
<rect x="64.8125" y="32.4844" width="10" height="10" rx="5" fill="#81818B" fill-opacity="0.2"/>
<rect x="80.8125" y="32.4844" width="10" height="10" rx="5" fill="#81818B" fill-opacity="0.2"/>
<rect x="96.8125" y="32.4844" width="10" height="10" rx="5" fill="#81818B" fill-opacity="0.2"/>
<rect x="112.812" y="32.4844" width="10" height="10" rx="5" fill="#81818B" fill-opacity="0.2"/>
<rect x="0.8125" y="48.4844" width="10" height="10" rx="5" fill="#81818B" fill-opacity="0.2"/>
<rect x="16.8125" y="48.4844" width="10" height="10" rx="5" fill="#81818B" fill-opacity="0.2"/>
<rect x="32.8125" y="48.4844" width="10" height="10" rx="5" fill="#81818B" fill-opacity="0.2"/>
<rect x="48.8125" y="48.4844" width="10" height="10" rx="5" fill="#81818B" fill-opacity="0.2"/>
<rect x="64.8125" y="48.4844" width="10" height="10" rx="5" fill="#81818B" fill-opacity="0.2"/>
<rect x="80.8125" y="48.4844" width="10" height="10" rx="5" fill="#81818B" fill-opacity="0.2"/>
<rect x="96.8125" y="48.4844" width="10" height="10" rx="5" fill="#81818B" fill-opacity="0.2"/>
<rect x="112.812" y="48.4844" width="10" height="10" rx="5" fill="#81818B" fill-opacity="0.2"/>
<path d="M0.8125 69.4844C0.8125 66.723 3.05108 64.4844 5.8125 64.4844C8.57392 64.4844 10.8125 66.723 10.8125 69.4844C10.8125 72.2458 8.57392 74.4844 5.8125 74.4844C3.05108 74.4844 0.8125 72.2458 0.8125 69.4844Z" fill="#81818B" fill-opacity="0.2"/>
<rect x="16.8125" y="64.4844" width="10" height="10" rx="5" fill="#81818B" fill-opacity="0.2"/>
<rect x="32.8125" y="64.4844" width="10" height="10" rx="5" fill="#81818B" fill-opacity="0.2"/>
<rect x="48.8125" y="64.4844" width="10" height="10" rx="5" fill="#81818B" fill-opacity="0.2"/>
<rect x="64.8125" y="64.4844" width="10" height="10" rx="5" fill="#81818B" fill-opacity="0.2"/>
<rect x="80.8125" y="64.4844" width="10" height="10" rx="5" fill="#81818B" fill-opacity="0.2"/>
<rect x="96.8125" y="64.4844" width="10" height="10" rx="5" fill="#81818B" fill-opacity="0.2"/>
<rect x="112.812" y="64.4844" width="10" height="10" rx="5" fill="#81818B" fill-opacity="0.2"/>
<rect x="0.8125" y="80.4844" width="10" height="10" rx="5" fill="#81818B" fill-opacity="0.2"/>
<rect x="16.8125" y="80.4844" width="10" height="10" rx="5" fill="#81818B" fill-opacity="0.2"/>
<rect x="32.8125" y="80.4844" width="10" height="10" rx="5" fill="#81818B" fill-opacity="0.2"/>
<rect x="48.8125" y="80.4844" width="10" height="10" rx="5" fill="#81818B" fill-opacity="0.2"/>
<rect x="64.8125" y="80.4844" width="10" height="10" rx="5" fill="#81818B" fill-opacity="0.2"/>
<rect x="80.8125" y="80.4844" width="10" height="10" rx="5" fill="#81818B" fill-opacity="0.2"/>
<rect x="96.8125" y="80.4844" width="10" height="10" rx="5" fill="#81818B" fill-opacity="0.2"/>
<rect x="112.812" y="80.4844" width="10" height="10" rx="5" fill="#81818B" fill-opacity="0.2"/>
<rect x="0.8125" y="96.4844" width="10" height="10" rx="5" fill="#81818B" fill-opacity="0.2"/>
<rect x="16.8125" y="96.4844" width="10" height="10" rx="5" fill="#81818B" fill-opacity="0.2"/>
<rect x="32.8125" y="96.4844" width="10" height="10" rx="5" fill="#81818B" fill-opacity="0.2"/>
<rect x="48.8125" y="96.4844" width="10" height="10" rx="5" fill="#81818B" fill-opacity="0.2"/>
<path d="M64.8125 101.484C64.8125 98.723 67.0511 96.4844 69.8125 96.4844C72.5739 96.4844 74.8125 98.723 74.8125 101.484C74.8125 104.246 72.5739 106.484 69.8125 106.484C67.0511 106.484 64.8125 104.246 64.8125 101.484Z" fill="#81818B" fill-opacity="0.2"/>
<rect x="80.8125" y="96.4844" width="10" height="10" rx="5" fill="#81818B" fill-opacity="0.2"/>
<rect x="96.8125" y="96.4844" width="10" height="10" rx="5" fill="#81818B" fill-opacity="0.2"/>
<rect x="112.812" y="96.4844" width="10" height="10" rx="5" fill="#81818B" fill-opacity="0.2"/>
<rect x="0.8125" y="112.484" width="10" height="10" rx="5" fill="#81818B" fill-opacity="0.2"/>
<rect x="16.8125" y="112.484" width="10" height="10" rx="5" fill="#81818B" fill-opacity="0.2"/>
<rect x="32.8125" y="112.484" width="10" height="10" rx="5" fill="#81818B" fill-opacity="0.2"/>
<rect x="48.8125" y="112.484" width="10" height="10" rx="5" fill="#81818B" fill-opacity="0.2"/>
<rect x="64.8125" y="112.484" width="10" height="10" rx="5" fill="#81818B" fill-opacity="0.2"/>
<rect x="80.8125" y="112.484" width="10" height="10" rx="5" fill="#81818B" fill-opacity="0.2"/>
<rect x="96.8125" y="112.484" width="10" height="10" rx="5" fill="#81818B" fill-opacity="0.2"/>
<rect x="112.812" y="112.484" width="10" height="10" rx="5" fill="#81818B" fill-opacity="0.2"/>
</svg>
